<svg xmlns="http://www.w3.org/2000/svg" width="384" height="384" xml:space="preserve"><switch><g><path fill="#D90B1C" d="M325 215c4-3 9-4 15-4h19c12 0 20 7 20 20 0 19-4 38-11 56l-1 7v36c0 28-21 49-49 49H67c-27 0-48-22-48-49v-35l-2-8c-7-18-10-37-10-57 0-12 7-19 19-19h19c6 0 11 0 16 4 4-4 10-4 16-4h29c7 0 9 0 15 4 4-4 10-4 16-4h41c6 0 10 1 15 4 5-5 12-4 19-4h38c5 0 10 0 15 4 4-4 10-4 16-4h29c6 0 10 1 15 4zm-132 68c-4 7-7 15-12 22a28 28 0 0 1-49-1l-11-20-1 3-7 18c-4 8-10 13-19 14-8 0-15-4-20-11l-7-13c-3 8-4 17-13 21-8 5-16 3-23-3v15c0 24 15 39 38 39h250c16 0 31-11 34-28 2-8 2-17 2-26l-2 1c-13 9-27 4-32-10l-2-9-9 14a21 21 0 0 1-37-2l-8-19-1-4-11 21c-6 10-15 14-26 14-10-1-17-6-22-14-5-7-9-15-12-22zm-65-24c2 15 7 29 16 42 7 8 19 8 26-1 8-12 14-26 16-41h-11c-2 9-6 12-16 12h-6c-9 0-12-3-15-12h-10zm72 0c2 14 7 27 14 39 8 12 22 12 29 0 6-9 11-20 13-31l2-8h-11c-2 9-6 12-15 12h-6c-10 0-13-3-16-12h-10zm71 0c2 15 6 28 12 42 4 7 13 8 18 0l12-25 5-17h-5c-2 8-6 12-14 12h-11c-5 0-8-3-10-7l-2-5h-5zm-157 0c-4-1-5 0-6 3-1 5-6 8-11 9h-9c-10 0-13-3-16-12h-4c3 16 8 31 18 44 4 6 12 5 15-1 7-14 11-28 13-43zm85-12h11c3-9 6-12 15-12h10c3 0 6 1 8 3l5 8h11v-18c-1-3-3-5-6-5h-48c-4 0-6 2-6 6v18zm-12 0v-18c0-4-3-6-6-6h-48c-3 0-6 2-6 5v19h11c3-10 6-12 16-12h6c9 0 13 2 15 12h12zM24 270c3 11 8 23 14 33 2 3 4 4 8 4 3-1 5-3 6-6l6-17c2-4 2-8 1-13l-3-12-2 3c-2 5-5 8-10 9l-20-1zm306-12-4 19v2l7 22c1 3 3 5 7 6 4 0 6-2 8-5l7-16c3-5 5-11 6-16l-15 1c-10 0-13-3-16-13zM73 247c1-9 5-12 13-12h11c2 0 5 1 7 3 3 2 4 5 6 9h5v-19c-1-3-3-5-6-5H73c-4 0-6 2-6 5v19h6zm246 0v-19c-1-3-3-5-6-5h-36c-3 0-6 1-6 4v20h5c2-9 6-12 15-12h6c10 0 13 2 16 12h6zm47-5 1-1v-13c-1-3-3-5-6-5h-24c-4 0-6 2-6 5v15c3-7 8-9 15-8h5c6-1 11 1 15 7zm-311 1v-14c0-4-3-6-6-6H25c-3 0-6 1-6 4v14h1c3-5 8-7 14-6h6c6-1 11 1 15 8zm-24 15h12v-11H31v11zm54 0h11v-11H85v11zm138-11v11h11v-11h-11zm78 12v-12h-12v12h12zm54-12h-12v11h12v-11zm-204 0v11h11v-11h-11zM325 170c-5 4-10 5-16 5h-29c-6 0-11-1-15-5-5 4-11 5-17 5h-41c-5 0-10-1-14-5-6 5-12 5-19 5h-38c-8 0-9-1-15-5-5 4-11 5-16 5H75c-7 0-8-1-14-5-5 5-11 5-18 5H25c-10 0-18-8-18-19 0-20 3-39 10-58l2-7V55C19 28 40 7 67 7h252c26 0 48 21 48 48v36l1 7c7 19 11 38 11 57 0 12-8 20-20 20h-18c-6 0-12-1-16-5zM30 73c15-11 29-6 34 10l3 7 8-14c10-13 29-12 37 2l4 9 5 14 11-20c12-19 37-19 49-1 4 6 7 14 10 21l1 2 13-23c12-18 37-18 48 1 4 5 6 12 9 18l2 2 9-22c4-8 11-12 20-12 8 0 14 4 18 10l8 13c2-8 4-17 12-21s16-2 24 3V57c0-23-15-38-39-38H67c-17 0-32 11-35 27-2 9-1 17-2 27zm156 54c-2-15-7-29-16-41-7-10-20-10-27 0l-5 9c-5 10-9 20-10 32h11c1-9 5-12 14-12h6c3 0 8 0 10 2 3 2 5 6 7 10h10zm72 0c-2-15-7-29-16-41-6-9-19-10-26-1-9 12-14 26-16 42h10c3-9 6-12 15-12h6c10 0 13 2 16 12h11zm-186 0c3-10 6-12 16-12h9c5 0 10 3 11 9l1 3h4l1-1c-2-14-5-28-12-41-2-3-4-6-8-6-5-1-8 2-10 5l-12 26-4 17h4zm245 0v-1c-2-16-8-30-17-43-4-6-13-6-16 1l-7 16-6 27h5c1-4 3-7 5-9 4-5 23-5 28 0l5 9h3zm-179 12h-11v18c0 3 2 6 6 6h48c3 0 5-2 6-5v-19h-12c-2 9-6 12-16 12h-5c-10 0-13-3-16-12zm61 0v18c0 3 2 6 6 6h48c3 0 5-2 5-5l1-19h-12c-2 9-6 12-15 12h-6c-10 0-13-3-16-12h-11zM24 115h21c4 0 8 4 9 8l1 4 5-19-1-2-7-21c-1-4-3-6-7-6-3-1-6 1-7 4-6 11-11 21-14 32zm337 1c-3-11-7-22-13-32-2-4-4-6-8-5-4 0-6 3-7 6l-5 13c-2 6-3 12 0 19l1 8 1 3c1-7 4-12 10-13 7-1 14-1 21 1zM67 139v19c0 3 2 5 6 5h36c3 0 5-2 6-5v-19h-6c-2 9-6 12-15 12h-6c-10 0-13-3-16-12h-5zm246 0c-2 9-6 12-15 12h-6c-10 0-13-3-16-12h-5v18c0 3 2 6 6 6h36c3 0 5-2 6-5v-19h-6zm54 5h-1c-4 8-11 7-18 7s-14-1-17-8v13c0 4 2 7 6 7h24c3 0 5-2 5-5l1-14zm-347 0h-1v13c0 4 3 6 6 6h24c3 0 5-2 6-6v-14c-4 6-9 8-16 8h-6c-5 0-10-2-13-7zm23-5v-12H31v12h12zm42-12v12h11v-12H85zm77 12v-12h-11v12h11zm61-1h11v-11h-11v11zm78-11h-12v11h12v-11zm53 12v-12h-11v12h11z"/></g></switch></svg>