<svg xmlns="http://www.w3.org/2000/svg" width="384" height="384" xml:space="preserve"><switch><g><path fill="#D90B1C" d="m1 154 1-6c6-24 32-37 55-26l19 10c10 6 21 6 31 0l16-8c19-11 39-6 52 11l1 2 2-3c12-15 33-20 50-11l18 10c10 5 20 5 30 0l18-10c26-14 57 4 58 34v12c0 4-3 6-6 6s-5-2-6-6v-17c-3-18-23-28-40-20l-19 10c-13 8-27 8-40 0l-17-9c-20-10-42 3-42 25v37c0 19 5 36 13 53 9 16 13 33 11 52l-5 28a15 15 0 0 0 29 8l15-35c3-7 8-12 16-12s13 5 16 12l15 35c3 7 9 10 15 9 7 0 13-5 14-11l-1-13-3-32c-1-15 3-28 9-40 9-17 14-34 14-53 0-4 3-6 6-6s6 3 6 7c-1 19-5 37-14 54-8 15-12 30-10 46l4 28c2 14-5 26-18 30s-27-2-33-16l-14-33c-1-3-2-5-6-5-3 0-5 2-6 5l-15 35c-8 18-31 21-44 6-6-7-7-15-5-24l3-24c2-16-1-31-8-46l-10-20c-7 18-19 34-18 54 0 12 2 23 4 34v14c-2 11-11 20-22 21-12 2-23-4-27-15l-16-35c-1-3-2-5-6-5-3 0-4 2-6 5l-14 35c-5 11-17 17-29 15-11-1-20-10-21-22-1-6 0-12 1-17 2-13 5-26 2-39-2-8-4-17-8-24-8-16-14-33-15-51v-49zm170 30v-26c-1-22-22-35-43-25l-17 10c-13 7-26 7-40-1l-16-9c-21-11-43 3-43 26v30c0 21 4 41 14 60 8 15 11 31 10 47l-4 31c-1 5 0 9 3 13 7 9 21 7 26-4l14-35 6-8c9-7 21-4 26 7l16 36c3 8 11 11 18 9 7-3 11-10 10-17l-2-16c-5-23-2-46 10-67a116 116 0 0 0 12-61zM1 48c3-5 7-7 13-7h41c4 1 6 3 6 6s-3 6-6 6H12v42h64V49c0-6 2-8 7-8h10c11 0 15 4 17 16h46c2 0 4 0 5-2 9-12 24-17 38-11a32 32 0 0 1-6 62c-13 2-24-2-32-12-1-2-3-3-5-3h-46l-1 4c0 6-5 12-12 12H10c-5 0-7-3-9-7V48zm186 47c12 0 21-9 21-21 1-12-9-21-21-21a21 21 0 0 0 0 43zm-32-26h-45v10h45V69zM87 95h9l2-2a1432 1432 0 0 0-2-40h-9v42zM385 72c-2 3-4 5-8 6l-7 1c-9 3-15 9-18 18l-1 8c-1 4-4 6-8 6-3 0-6-2-7-6l-1-7c-3-10-10-16-20-19l-7-2c-4-1-6-3-6-7s2-6 6-7l8-2c10-3 16-9 18-18l2-7c1-5 3-7 7-7s7 2 8 7l1 6c3 11 10 17 20 19l4 1c4 1 7 2 9 5v5zm-60-2c8 4 14 10 18 19 4-9 10-15 19-19-9-4-15-10-19-19-4 9-10 15-18 19z"/><path fill="#D90B1C" d="M326 180c0 5-1 7-4 8l-5 2c-9 1-13 6-15 14l-1 5c-1 3-3 4-6 4-4 0-6-1-7-4l-1-7c-2-6-7-11-13-12l-6-2c-3-1-5-3-5-6s2-5 5-6l5-2c8-2 12-7 14-14l1-5c1-3 4-5 7-5s5 2 6 5l2 6c1 7 6 12 13 13l6 2 4 4zm-31-6-8 8 7 8 8-8-7-8zM262 63c3 0 5 1 6 5 1 12 8 18 19 20 4 0 6 3 6 6 0 4-2 6-5 7l-6 1c-7 2-11 6-13 13l-1 6c-1 3-4 4-7 5-3 0-5-2-6-5l-2-6c-1-7-6-11-13-13l-6-1c-3-1-4-4-4-7s1-5 4-6l6-2c7-1 12-6 14-14l1-4c1-4 3-5 7-5zm7 31-8-8-8 8 8 8 8-8zM195 74c0 4-4 7-8 8-4 0-7-4-7-8s3-7 7-7 7 3 8 7z"/></g></switch></svg>