<svg xmlns="http://www.w3.org/2000/svg" width="383" height="383" xml:space="preserve"><switch><g><path fill="#D90B1C" d="m384 233-6 7-63 63c-7 6-8 6-15 0l-2-2-24 24 6 11c5 14 0 28-14 38-8 5-16 8-26 10h-16l-16-4c-11-4-20-10-25-20-7-13-4-29 9-39 11-10 25-14 40-13 10 0 20 2 29 7h4l25-24-6-4c-3-3-3-7 0-10l2-2 85-85c6-6 9-5 13 0v43zm-154 87c-9 0-17 2-25 7-15 9-18 24-3 36 15 11 42 11 57 0 14-11 14-24-1-34-8-6-17-9-28-9zm77-28 1-1a49957 49957 0 0 0 63-64v-18l-73 73 9 10zM9 0l5 5 52 56c6 5 6 7 1 13l19 20c5 4 5 7 0 12l-6 6 3 3 26 26c6 6 6 11 3 19l-4 7c-2 5-1 10 3 14 3 5 8 6 14 4l16-7 4-1 5 12c-10 3-19 9-30 9-18 1-30-18-24-34l4-10v-3l-29-30-7 7c-5 5-8 5-12 1l-19-20c-7 5-8 5-14 0L5 97l-5-5V0h9zm46 67L14 23l-1 2a19910 19910 0 0 0 1 63l11 9 30-30zm3 17-16 16 16 15 16-15-16-16z"/><path fill="#D90B1C" d="m56 149 12-3 6 17c4 14 10 26 17 38 4 6 6 13 7 20l15 110c1 9 7 15 15 15s15-6 16-14l18-103 4-19c4-12 16-19 28-18 13 1 23 10 26 22l7 42 7 37-13 3-3-21-9-55c-2-9-8-15-17-15-8 0-14 6-16 15l-15 87-4 29c-4 14-16 23-30 23-13-1-25-11-27-26L86 228c-1-9-3-17-8-25-11-16-17-35-22-54zM296 251l-13-2 5-38 3-6c15-23 24-48 28-74 1-14 2-29-1-43a68 68 0 0 0-88-45c-11 4-22 7-34 8-11 0-21-1-31-5-9-2-17-6-26-7-21-2-39 5-55 19l-2 3-10-9a81 81 0 0 1 91-20c20 8 39 8 58 0 21-8 41-9 61 0 30 13 48 36 50 68 3 35-6 69-23 99-6 11-10 23-11 35l-2 17z"/></g></switch></svg>