<svg xmlns="http://www.w3.org/2000/svg" width="384" height="384" xml:space="preserve"><switch><g><path fill="#D90B1C" d="m255 1 14 3c35 9 59 39 61 76 2 34-18 67-50 81l-3 1c5 7 5 14 4 21-1 8-8 15-16 15h-31l13 19 2 1h3c6 0 8 2 8 6s-2 5-8 5l-2 1v9c5 0 10-1 10 5 0 7-5 6-10 6v9c5 1 10 0 10 6 0 4-2 5-10 6v9c5 1 10-1 10 6 0 4-2 5-10 6v9c5 0 11-1 10 6 0 6-5 5-10 5v10c5 0 10-1 10 6 0 3-2 4-10 5v9l5 1c3 0 5 2 5 5 1 3-1 5-4 5l-2 1c-6-2-10 2-14 6l-17 18-8 7h-45l-28-28c-2-2-4-4-7-3l-5-1c-3 0-5-2-5-5s2-5 5-5l5-1v-9c-4 0-10 1-10-6 0-4 2-5 10-6v-9c-4 0-10 1-10-6 1-6 6-5 10-5v-9c-4-1-10 1-10-7 0-3 2-4 10-5v-9c-4-1-10 1-10-6 0-4 2-5 10-6v-9c-4 0-10 1-10-5 0-7 6-6 10-6v-9l-5-1c-3 0-5-2-5-5s2-6 6-6c6 1 9-2 12-7l8-12-4-1h-23c-13 0-20-7-20-20 0-5 1-11 4-15-6-4-13-7-19-12a83 83 0 0 1 1-134c4-4 7-4 10 0 2 3 1 6-4 9a71 71 0 0 0-30 59c1 40 33 71 72 71h78c3 1 5 3 4 6 0 3-2 5-4 5h-91c-8 0-9 2-9 10 0 9 1 10 10 10h134c9 0 14-8 9-16-1-3-4-4-7-4h-19c-5 0-7-2-7-5 0-4 2-6 7-6 15 1 29-3 42-10a72 72 0 0 0-29-133c-13-2-26 0-38 5-17 8-33 8-50 0-15-6-30-8-46-4l-7-1-2-5 4-4 14-3h16c10 1 20 5 29 9 11 5 23 4 34-1l15-5 14-3h16zm-16 332h-43c-5 0-7-2-7-6 0-3 2-5 6-5h44v-10h-92v9l1 1h19c3 0 6 1 6 4 1 4-2 7-6 7h-20v9h92v-9zm-5-115-13-19-3-1a7626 7626 0 0 0-54 1l-12 19h82zm-79 136 19 19h3a3487 3487 0 0 0 35 0l19-19h-76zm-8-115h92v-9h-92v9zm0 41h92v-9h-92v9zm0-21h92v-9h-92v9zm0 42h92v-9h-92v9z"/><path fill="#D90B1C" d="M193 45c-11 0-21-2-31-6-4-2-6-5-4-8 1-4 4-5 9-3 17 8 35 8 52 0 4-2 7-1 9 2 1 4 0 7-5 8-9 5-20 7-30 7z"/></g></switch></svg>