<svg xmlns="http://www.w3.org/2000/svg" width="203" height="211" xml:space="preserve"><switch><g><path fill="#D90B1C" d="M104 1v28c-3-2-4-18-2-28h2zM46 82l4-18c5-12 15-17 28-14l14 5c7 3 14 3 21 0l16-5c12-3 21 2 27 14 4 9 5 19 2 29-4 19-9 37-15 56l-8 17-5 5c-5 4-10 3-12-3l-6-23-3-9c-1-3-4-5-6-5-3 0-6 2-7 5l-4 18-4 14c-3 6-8 7-12 3-3-2-7-6-8-9-10-25-19-51-22-80zm4 2v2c1 22 9 42 16 63 1 5 3 9 6 13 2 3 6 7 9 7 5 0 5-5 6-9l5-22c2-7 5-10 10-10 6 0 9 2 11 9l3 12 5 17c1 4 4 5 8 2l6-8c9-17 13-36 18-55 2-10 4-20 2-31-3-17-13-24-30-19l-10 4c-8 3-16 3-24 0l-15-5c-9-3-16 0-21 8-4 6-5 14-5 22zM103 211l-1-3v-20l2-4 1 4v23h-2zM143 173l13 23-1 1-3-2c-4-7-9-14-11-21l2-1zM67 39c-5-1-16-18-14-23l14 23zM77 179l-3 9-5 14-3 2v-3l7-19 2-4 2 1zM130 34v-3l8-20 3-2v3l-8 20-2 2h-1zM178 93l25-4c-2 5-21 8-24 6l-1-2zM38 147l-22 13 1-4 20-12 1 3zM170 145h3l16 10 2 3h-4l-18-11 1-2zM2 106h25c-2 2-20 3-25 0zM164 184c-5-2-13-13-12-19l13 18-1 1zM55 47 41 29c5 1 15 12 14 18zM169 68c1-4 13-11 18-11-2 4-13 11-18 11zM14 72c3-2 15 1 19 6-3 2-14-2-19-6zM57 186l7-12h2l1 1-8 12-2-1zM139 39c4-5 5-10 10-14 0 7-5 13-10 14zM174 47c0 4-4 8-10 12-1-4 2-8 10-12zM43 153c1 5-6 11-11 11 3-5 7-7 11-11zM189 140c-4 1-12-2-14-6l14 5v1zM89 16c4 4 5 11 2 14-2-4-3-8-2-14zM119 196c-5-3-6-9-3-14l3 14zM194 107h-14v-2h14v2zM37 68c-4-1-8-1-9-6 4 1 8 1 9 6zM17 119l11-2c-2 4-6 4-11 3v-1z"/><path fill="#D90B1C" d="M145 67c10 9 6 53-5 60l1-7 7-30-3-18v-5zM87 67l-7-3c-12-6-18-3-22 10l-2 5c-4-4-2-7-1-9 3-7 7-12 15-12 7-1 13 3 18 6l-1 3zM129 153l5-11c3 5 0 9-5 11z"/></g></switch></svg>